<svg width="113" height="20" viewBox="0 0 113 20" fill="none" xmlns="http://www.w3.org/2000/svg">
<path d="M3.73895 13.5295V19.5222H0V1.46997H7.7911C12.4115 1.46997 14.7266 3.48474 14.7266 7.49814C14.7266 11.5115 12.4115 13.5263 7.7911 13.5263H3.73895V13.5295ZM3.73895 5.04425V9.95203H7.7911C9.91887 9.95203 10.9876 9.13514 10.9876 7.49814C10.9876 5.86113 9.91887 5.04425 7.7911 5.04425H3.73895Z" fill="#F4F3ED"/>
<path d="M31.7811 19.5222L30.3475 15.7832H22.6436L21.21 19.5222H17.4711L24.4711 1.46997H28.3618L35.5233 19.5222H31.7843H31.7811ZM26.4568 6.16464L23.99 12.2057H28.8364L26.4568 6.16464Z" fill="#F4F3ED"/>
<path d="M59.5617 19.5222H55.7484L53.2041 9.26429L50.4209 19.5222H46.8337L44.0505 9.26429L41.4319 19.5222H37.693L42.2262 1.46997H45.8877L48.5805 11.7279L51.3767 1.46997H54.9509L59.5584 19.5222H59.5617Z" fill="#F4F3ED"/>
<path d="M64.8311 17.2167C62.981 15.3537 62.0479 13.1129 62.0479 10.4944C62.0479 7.8758 62.981 5.63502 64.8311 3.772C66.6812 1.9219 68.922 0.98877 71.5534 0.98877C74.1849 0.98877 76.4128 1.9219 78.2758 3.772C80.1259 5.63502 81.059 7.8758 81.059 10.4944C81.059 13.1129 80.1291 15.3537 78.2758 17.2167C76.4128 19.0668 74.172 19.9999 71.5534 19.9999C68.9349 19.9999 66.6812 19.0668 64.8311 17.2167ZM75.7444 14.6886C76.9036 13.5294 77.4815 12.1346 77.4815 10.4976C77.4815 8.86059 76.9036 7.46251 75.7444 6.3066C74.5853 5.14747 73.1904 4.56951 71.5534 4.56951C69.9164 4.56951 68.5184 5.14747 67.3625 6.3066C66.2033 7.46574 65.6254 8.86059 65.6254 10.4976C65.6254 12.1346 66.2033 13.5327 67.3625 14.6886C68.5216 15.8477 69.9164 16.4257 71.5534 16.4257C73.1904 16.4257 74.5885 15.8477 75.7444 14.6886Z" fill="#F4F3ED"/>
<path d="M89.4249 17.9852C88.1786 19.3316 86.3285 20 83.8617 20V16.4516C86.3156 16.4516 87.5361 15.3441 87.5361 13.142V1.47314H91.275V13.142C91.275 15.0438 90.6583 16.655 89.4249 17.9885V17.9852Z" fill="#F4F3ED"/>
<path d="M108.707 19.5222L107.274 15.7832H99.5698L98.1362 19.5222H94.3972L101.397 1.46997H105.288L112.449 19.5222H108.71H108.707ZM103.383 6.16464L100.916 12.2057H105.763L103.383 6.16464Z" fill="#F4F3ED"/>
</svg>
