<svg width="83" height="396" viewBox="0 0 83 396" fill="none" xmlns="http://www.w3.org/2000/svg">
<path d="M44.6148 150.945C43.2475 152.065 41.6535 154.329 39.6321 154.834C32.032 156.725 28.0884 161.308 27.7062 169.117C23.4041 169.008 19.1917 169.173 15.0582 168.668C13.3723 168.461 11.1282 167.205 10.387 165.769C2.06841 149.638 -11.6017 141.435 -28.9749 138.492C-54.4409 134.188 -79.8756 136.494 -105.117 140.028C-115.6 141.504 -124.925 139.642 -134.674 136.614C-141.019 134.656 -147.918 134.233 -154.619 133.763C-156.616 133.616 -158.766 135.604 -160.85 136.629L-160.542 138.823C-153.456 139.474 -146.379 140.138 -139.293 140.789C-139.347 141.375 -139.38 141.96 -139.434 142.547C-142.391 142.276 -145.907 142.175 -149.844 142.454C-153.644 142.741 -156.999 143.315 -159.819 143.983C-159.949 145.467 -160.078 146.951 -160.204 148.458C-152.651 148.256 -145.099 148.053 -137.546 147.852C-137.357 148.386 -137.18 148.911 -136.99 149.447C-144.52 150.784 -152.063 152.112 -159.593 153.449C-159.363 154.138 -159.154 154.831 -158.924 155.52C-150.218 155.168 -141.521 154.828 -132.827 154.467L-132.519 155.705C-135.04 156.121 -138.099 156.706 -141.399 157.546C-142.724 157.887 -144.431 158.354 -145.443 159.876C-145.866 160.518 -146.05 161.166 -146.133 161.609C-145.789 161.92 -145.249 162.345 -144.492 162.675C-142.967 163.345 -141.494 163.202 -140.667 163.081C-128.344 161.201 -121.746 157.972 -121.746 157.972C-97.0571 150.02 -71.7316 147.284 -45.9983 149.359C-41.6216 149.71 -37.5549 153.922 -33.3394 156.34C-37.0494 159.177 -40.4921 162.527 -44.5549 164.7C-47.5371 166.299 -51.3296 166.834 -54.7838 166.965C-59.9364 167.163 -61.6998 170.004 -62.2664 174.477C-63.5151 184.166 -64.7186 193.849 -66.1299 203.511C-67.2075 210.834 -65.2524 212.432 -58.2097 210.162C-51.7588 208.079 -45.2506 205.714 -38.5997 204.824C-33.3943 204.119 -27.4047 204.64 -26.1003 212.473C-33.8548 218.857 -43.7996 218.561 -53.0143 220.363C-56.3593 221.027 -60.109 221.067 -61.867 223.385C-62.8781 224.724 -62.7987 226.331 -62.7682 228.387C-62.7376 230.444 -62.3871 233.93 -60.3572 238.045C-58.0081 237.615 -54.5959 236.944 -50.5002 235.996C-28.3097 230.836 -15.1719 226.833 -3.76849 217.484C3.16124 211.814 9.24571 205.539 12.1096 196.795C16.7564 182.623 25.0579 179.941 37.7625 188.727C49.699 196.99 62.0293 196.783 74.3348 190.114C85.1876 184.234 85.8022 168.6 76.4245 159.381C71.1492 154.199 64.9665 153.872 58.3585 153.414C53.7351 153.093 49.1655 151.798 44.6273 150.955L44.6148 150.945Z" fill="#C65C14"/>
<path d="M-36.3972 247.427C-36.3987 247.791 -36.3452 249.276 -34.2145 251.296C-31.4568 253.89 -28.2501 254.54 -28.0057 254.59C-17.838 256.647 25.1337 286.699 28.9382 281.621C29.1454 281.357 29.1579 281.083 30.0316 279.452C31.6759 276.375 32.5255 275.681 32.7595 274.788C33.6357 271.472 26.1202 267.721 26.1202 267.721C3.53621 256.434 -7.75571 250.792 -26.4409 242.508C-27.5109 242.033 -30.3739 240.738 -32.998 242.192C-34.7163 243.138 -36.4033 245.287 -36.4071 247.439L-36.3972 247.427Z" fill="#C65C14"/>
<path d="M-7.00003 232.967C-6.96948 233.317 -6.79691 234.753 -4.64482 236.383C-1.8795 238.476 1.13786 238.591 1.37766 238.596C10.9367 238.996 53.1941 261.394 56.271 255.846C56.4405 255.552 56.4306 255.28 57.089 253.562C58.3474 250.303 59.0588 249.501 59.1879 248.586C59.6944 245.224 52.4474 242.76 52.4474 242.76C30.6264 235.367 19.7159 231.669 1.7679 226.587C0.742249 226.289 -2.01695 225.483 -4.31108 227.317C-5.81708 228.511 -7.1711 230.882 -6.9901 232.955L-7.00003 232.967Z" fill="#C65C14"/>
<path d="M17.0738 214.456C17.1492 214.799 17.5306 216.176 19.8169 217.404C22.7598 218.985 25.6228 218.573 25.8471 218.546C34.9671 217.279 78.3094 232.035 80.4118 226.046C80.5212 225.726 80.479 225.469 80.8548 223.671C81.5703 220.25 82.1212 219.341 82.113 218.42C82.1153 215.028 74.8648 213.862 74.8648 213.862C53.1008 210.353 42.22 208.611 24.447 206.694C23.4332 206.589 20.6985 206.269 18.7894 208.467C17.5398 209.903 16.5944 212.453 17.0764 214.478L17.0738 214.456Z" fill="#C65C14"/>
<path d="M-53.4359 283.381C-53.0823 283.293 -51.6275 282.993 -49.1615 284.586C-45.9891 286.652 -44.5984 289.615 -44.4915 289.841C-40.0873 299.238 -0.726715 333.89 -4.75746 338.791C-4.96443 339.054 -5.22867 339.132 -6.60484 340.367C-9.20367 342.694 -9.67639 343.685 -10.4882 344.123C-13.5002 345.76 -18.9232 339.343 -18.9232 339.343C-35.2318 320.064 -43.3857 310.424 -55.8545 294.223C-56.5685 293.295 -58.5037 290.819 -57.7141 287.924C-57.2016 286.03 -55.5146 283.881 -53.4259 283.368L-53.4359 283.381Z" fill="#C65C14"/>
<path d="M-63.5563 308.717C-63.2103 308.663 -61.7746 308.49 -59.6813 310.197C-56.9947 312.389 -56.1684 315.295 -56.1065 315.527C-53.455 324.724 -21.6969 360.495 -26.3562 364.799C-26.6013 365.034 -26.8678 365.089 -28.3807 366.136C-31.2468 368.131 -31.8578 369.012 -32.7154 369.354C-35.8595 370.642 -39.9689 364.182 -39.9689 364.182C-52.317 344.722 -58.4907 334.993 -67.6764 318.749C-68.2087 317.823 -69.6452 315.333 -68.4065 312.668C-67.6038 310.922 -65.6221 309.044 -63.5662 308.729L-63.5563 308.717Z" fill="#C65C14"/>
<path d="M-76.5131 333.652C-76.161 333.644 -74.7337 333.689 -73.0001 335.621C-70.7678 338.107 -70.4898 340.987 -70.4631 341.212C-69.5337 350.377 -44.9406 389.013 -50.2582 392.474C-50.5438 392.656 -50.8034 392.676 -52.4599 393.467C-55.6131 394.973 -56.3646 395.723 -57.2612 395.933C-60.5542 396.739 -63.4035 389.968 -63.4035 389.968C-71.9645 369.643 -76.2336 359.479 -82.3034 342.658C-82.6463 341.697 -83.6047 339.115 -81.9223 336.738C-80.8233 335.184 -78.5712 333.661 -76.4909 333.65L-76.5131 333.652Z" fill="#C65C14"/>
<path d="M-68.2973 113.157C-71.3246 107.181 -62.2932 98.1616 -50.0749 83.3762C-27.9737 56.6241 -21.0309 41.9602 -13.9057 44.1658C-11.0113 45.0586 -9.67334 48.2442 -9.3587 49.0601C-6.0397 57.8466 -18.7964 65.9701 -36.9921 89.2481C-50.3574 106.323 -56.1111 118.101 -63.3631 116.73C-65.3074 116.36 -67.3427 115.046 -68.2973 113.157Z" fill="#C65C14"/>
<path d="M-75.8364 88.4527C-75.4722 88.455 -73.9883 88.4015 -71.9691 86.2697C-69.3764 83.5107 -68.7265 80.3024 -68.6761 80.0572C-66.621 69.8852 -36.5827 26.8924 -41.6582 23.0861C-41.9225 22.8787 -42.1966 22.8663 -43.8263 21.9921C-46.9025 20.3471 -47.5959 19.497 -48.4887 19.2629C-51.8023 18.3863 -55.5528 25.9053 -55.5528 25.9053C-66.8333 48.5004 -72.4739 59.798 -80.7531 78.4924C-81.2273 79.562 -82.5218 82.4273 -81.0685 85.0526C-80.123 86.771 -77.9748 88.4595 -75.8242 88.4626L-75.8364 88.4527Z" fill="#C65C14"/>
<path d="M-91.654 66.246C-91.305 66.2154 -89.87 66.0427 -88.2395 63.8888C-86.1486 61.1222 -86.0332 58.1034 -86.0279 57.8634C-85.6285 48.3001 -63.2409 6.02197 -68.7868 2.94372C-69.0801 2.7741 -69.3519 2.78403 -71.0695 2.12533C-74.3266 0.866307 -75.1285 0.154509 -76.0426 0.0253821C-79.4029 -0.48142 -81.8658 6.76922 -81.8658 6.76922C-89.2568 28.6008 -92.9515 39.5165 -98.0316 57.4738C-98.3294 58.4999 -99.1359 61.2597 -97.3015 63.5549C-96.1078 65.0624 -93.7381 66.4164 -91.667 66.236L-91.654 66.246Z" fill="#C65C14"/>
<path d="M-41.2657 115.623C-41.3535 115.269 -41.6537 113.814 -40.0614 111.346C-37.9963 108.173 -35.0347 106.781 -34.8087 106.674C-25.4176 102.268 9.21867 62.8887 14.117 66.9206C14.3808 67.1285 14.4579 67.3921 15.6926 68.7689C18.0185 71.369 19.0082 71.842 19.447 72.6549C21.083 75.6676 14.6694 81.094 14.6694 81.094C-4.60092 97.4098 -14.2356 105.568 -30.4289 118.043C-31.356 118.757 -33.8312 120.694 -36.7248 119.903C-38.618 119.391 -40.7662 117.702 -41.2787 115.613L-41.2657 115.623Z" fill="#C65C14"/>
<path d="M-15.9432 125.749C-15.9959 125.403 -16.1685 123.966 -14.4632 121.872C-12.2714 119.184 -9.36711 118.357 -9.13571 118.295C0.056839 115.643 35.8104 83.8691 40.113 88.5306C40.3472 88.7759 40.402 89.0425 41.4483 90.5554C43.4423 93.4237 44.3233 94.0341 44.6653 94.8929C45.9531 98.0386 39.4955 102.15 39.4955 102.15C20.0454 114.503 10.3203 120.681 -5.91446 129.871C-6.84006 130.403 -9.3297 131.841 -11.9934 130.601C-13.7392 129.798 -15.6156 127.815 -15.9303 125.759L-15.9432 125.749Z" fill="#C65C14"/>
<path d="M8.98132 138.711C8.97324 138.36 9.01791 136.932 10.9485 135.196C13.4335 132.963 16.3127 132.686 16.537 132.658C25.6974 131.728 64.3141 107.123 67.7743 112.444C67.9564 112.729 67.9763 112.989 68.7669 114.647C70.2719 117.801 71.022 118.553 71.232 119.45C72.0372 122.745 65.269 125.596 65.269 125.596C44.9544 134.16 34.7958 138.432 17.9819 144.504C17.0219 144.847 14.4407 145.807 12.0656 144.123C10.5115 143.024 8.98965 140.77 8.97858 138.689L8.98132 138.711Z" fill="#C65C14"/>
<path fill-rule="evenodd" clip-rule="evenodd" d="M-186.998 216.914C-186.998 216.924 -186.999 216.934 -187 216.943L-186.948 216.903L-186.998 216.914ZM-186.69 213.093C-186.514 210.891 -186.336 208.689 -186.16 206.486C-186.159 206.48 -186.159 206.474 -186.158 206.467C-186.336 208.676 -186.513 210.885 -186.69 213.093Z" fill="#C65C14"/>
<path fill-rule="evenodd" clip-rule="evenodd" d="M-136.775 209.4C-136.78 209.372 -136.784 209.343 -136.788 209.316L-136.758 209.38C-136.764 209.387 -136.769 209.393 -136.775 209.4ZM-135.961 214.638L-135.96 214.641C-135.765 215.904 -135.576 217.123 -135.386 218.344C-135.577 217.122 -135.766 215.903 -135.961 214.638Z" fill="#C65C14"/>
</svg>
