<svg width="83" height="396" viewBox="0 0 83 396" fill="none" xmlns="http://www.w3.org/2000/svg">
<path d="M38.8852 150.945C40.2525 152.065 41.8465 154.329 43.8679 154.834C51.468 156.725 55.4116 161.308 55.7938 169.117C60.0959 169.008 64.3083 169.173 68.4418 168.668C70.1277 168.461 72.3718 167.205 73.113 165.769C81.4316 149.638 95.1017 141.435 112.475 138.492C137.941 134.188 163.376 136.494 188.617 140.028C199.1 141.504 208.425 139.642 218.174 136.614C224.519 134.656 231.418 134.233 238.119 133.763C240.116 133.616 242.266 135.604 244.35 136.629L244.042 138.823C236.956 139.474 229.879 140.138 222.793 140.789C222.847 141.375 222.88 141.96 222.934 142.547C225.891 142.276 229.407 142.175 233.344 142.454C237.144 142.741 240.499 143.315 243.319 143.983C243.449 145.467 243.578 146.951 243.704 148.458C236.151 148.256 228.599 148.053 221.046 147.852C220.857 148.386 220.68 148.911 220.49 149.447C228.02 150.784 235.563 152.112 243.093 153.449C242.863 154.138 242.654 154.831 242.424 155.52C233.718 155.168 225.021 154.828 216.327 154.467L216.019 155.705C218.54 156.121 221.599 156.706 224.899 157.546C226.224 157.887 227.931 158.354 228.943 159.876C229.366 160.518 229.55 161.166 229.633 161.609C229.289 161.92 228.749 162.345 227.992 162.675C226.467 163.345 224.994 163.202 224.167 163.081C211.844 161.201 205.246 157.972 205.246 157.972C180.557 150.02 155.232 147.284 129.498 149.359C125.122 149.71 121.055 153.922 116.839 156.34C120.549 159.177 123.992 162.527 128.055 164.7C131.037 166.299 134.83 166.834 138.284 166.965C143.436 167.163 145.2 170.004 145.766 174.477C147.015 184.166 148.219 193.849 149.63 203.511C150.707 210.834 148.752 212.432 141.71 210.162C135.259 208.079 128.751 205.714 122.1 204.824C116.894 204.119 110.905 204.64 109.6 212.473C117.355 218.857 127.3 218.561 136.514 220.363C139.859 221.027 143.609 221.067 145.367 223.385C146.378 224.724 146.299 226.331 146.268 228.387C146.238 230.444 145.887 233.93 143.857 238.045C141.508 237.615 138.096 236.944 134 235.996C111.81 230.836 98.6719 226.833 87.2685 217.484C80.3388 211.814 74.2543 205.539 71.3904 196.795C66.7436 182.623 58.4421 179.941 45.7375 188.727C33.801 196.99 21.4706 196.783 9.16522 190.114C-1.68765 184.234 -2.30225 168.6 7.07553 159.381C12.3508 154.199 18.5335 153.872 25.1415 153.414C29.7649 153.093 34.3345 151.798 38.8727 150.955L38.8852 150.945Z" fill="#C65C14"/>
<path d="M119.897 247.427C119.899 247.791 119.845 249.276 117.715 251.296C114.957 253.89 111.75 254.54 111.506 254.59C101.338 256.647 58.3663 286.699 54.5618 281.621C54.3546 281.357 54.3421 281.083 53.4684 279.452C51.8241 276.375 50.9745 275.681 50.7405 274.788C49.8643 271.472 57.3798 267.721 57.3798 267.721C79.9638 256.434 91.2557 250.792 109.941 242.508C111.011 242.033 113.874 240.738 116.498 242.192C118.216 243.138 119.903 245.287 119.907 247.439L119.897 247.427Z" fill="#C65C14"/>
<path d="M90.5 232.967C90.4695 233.317 90.2969 234.753 88.1448 236.383C85.3795 238.475 82.3621 238.591 82.1223 238.596C72.5633 238.996 30.3059 261.394 27.229 255.846C27.0595 255.552 27.0694 255.28 26.411 253.562C25.1526 250.303 24.4412 249.501 24.3121 248.586C23.8056 245.224 31.0526 242.76 31.0526 242.76C52.8736 235.367 63.7841 231.669 81.7321 226.587C82.7577 226.289 85.517 225.483 87.8111 227.317C89.3171 228.511 90.6711 230.882 90.4901 232.955L90.5 232.967Z" fill="#C65C14"/>
<path d="M66.4262 214.456C66.3508 214.799 65.9694 216.176 63.6831 217.404C60.7402 218.985 57.8772 218.573 57.6529 218.546C48.5329 217.279 5.19058 232.035 3.0882 226.046C2.97876 225.726 3.02097 225.469 2.64523 223.671C1.92966 220.25 1.37885 219.341 1.38702 218.42C1.3847 215.028 8.63522 213.862 8.63522 213.862C30.3992 210.353 41.28 208.611 59.053 206.694C60.0668 206.589 62.8015 206.269 64.7106 208.467C65.9602 209.903 66.9056 212.453 66.4236 214.478L66.4262 214.456Z" fill="#C65C14"/>
<path d="M136.936 283.381C136.582 283.293 135.127 282.993 132.661 284.586C129.489 286.652 128.098 289.615 127.992 289.841C123.587 299.238 84.2267 333.89 88.2575 338.791C88.4644 339.054 88.7287 339.132 90.1048 340.367C92.7037 342.694 93.1764 343.685 93.9882 344.123C97.0002 345.76 102.423 339.343 102.423 339.343C118.732 320.064 126.886 310.424 139.354 294.223C140.069 293.295 142.004 290.819 141.214 287.924C140.702 286.03 139.015 283.881 136.926 283.368L136.936 283.381Z" fill="#C65C14"/>
<path d="M147.056 308.717C146.71 308.663 145.275 308.49 143.181 310.197C140.495 312.389 139.668 315.295 139.606 315.527C136.955 324.724 105.197 360.495 109.856 364.799C110.101 365.034 110.368 365.089 111.881 366.136C114.747 368.131 115.358 369.012 116.215 369.354C119.36 370.642 123.469 364.182 123.469 364.182C135.817 344.722 141.991 334.993 151.176 318.749C151.709 317.823 153.145 315.333 151.906 312.668C151.104 310.922 149.122 309.044 147.066 308.729L147.056 308.717Z" fill="#C65C14"/>
<path d="M160.013 333.652C159.661 333.644 158.234 333.689 156.5 335.621C154.268 338.107 153.99 340.987 153.963 341.212C153.034 350.377 128.441 389.013 133.758 392.474C134.044 392.656 134.303 392.676 135.96 393.467C139.113 394.973 139.865 395.723 140.761 395.933C144.054 396.739 146.904 389.968 146.904 389.968C155.465 369.643 159.734 359.479 165.803 342.658C166.146 341.697 167.105 339.115 165.422 336.738C164.323 335.184 162.071 333.661 159.991 333.65L160.013 333.652Z" fill="#C65C14"/>
<path d="M151.797 113.157C154.825 107.181 145.793 98.1616 133.575 83.3762C111.474 56.6241 104.531 41.9602 97.4057 44.1658C94.5113 45.0586 93.1733 48.2442 92.8587 49.0601C89.5397 57.8466 102.296 65.9701 120.492 89.2481C133.857 106.323 139.611 118.101 146.863 116.73C148.807 116.36 150.843 115.046 151.797 113.157Z" fill="#C65C14"/>
<path d="M159.336 88.4527C158.972 88.455 157.488 88.4015 155.469 86.2697C152.876 83.5107 152.226 80.3024 152.176 80.0572C150.121 69.8852 120.083 26.8924 125.158 23.0861C125.422 22.8787 125.697 22.8663 127.326 21.9921C130.402 20.3471 131.096 19.497 131.989 19.2629C135.302 18.3863 139.053 25.9053 139.053 25.9053C150.333 48.5004 155.974 59.7981 164.253 78.4924C164.727 79.562 166.022 82.4273 164.568 85.0526C163.623 86.771 161.475 88.4595 159.324 88.4626L159.336 88.4527Z" fill="#C65C14"/>
<path d="M175.154 66.246C174.805 66.2154 173.37 66.0427 171.74 63.8888C169.649 61.1222 169.533 58.1034 169.528 57.8634C169.128 48.3001 146.741 6.02197 152.287 2.94372C152.58 2.7741 152.852 2.78403 154.569 2.12533C157.827 0.866307 158.629 0.154509 159.543 0.0253821C162.903 -0.48142 165.366 6.76922 165.366 6.76922C172.757 28.6008 176.452 39.5165 181.532 57.4738C181.829 58.4999 182.636 61.2597 180.801 63.5549C179.608 65.0624 177.238 66.4164 175.167 66.236L175.154 66.246Z" fill="#C65C14"/>
<path d="M124.766 115.623C124.854 115.269 125.154 113.814 123.561 111.346C121.496 108.173 118.535 106.781 118.309 106.674C108.918 102.268 74.2813 62.8887 69.383 66.9206C69.1192 67.1285 69.0421 67.3921 67.8074 68.7689C65.4815 71.369 64.4918 71.842 64.053 72.6549C62.417 75.6676 68.8306 81.094 68.8306 81.094C88.1009 97.4098 97.7356 105.568 113.929 118.043C114.856 118.757 117.331 120.694 120.225 119.903C122.118 119.391 124.266 117.702 124.779 115.613L124.766 115.623Z" fill="#C65C14"/>
<path d="M99.4432 125.749C99.4959 125.403 99.6685 123.966 97.9632 121.872C95.7714 119.184 92.8671 118.357 92.6357 118.295C83.4432 115.643 47.6896 83.8691 43.387 88.5306C43.1528 88.7759 43.098 89.0425 42.0517 90.5554C40.0577 93.4237 39.1767 94.0341 38.8347 94.8929C37.5469 98.0386 44.0045 102.15 44.0045 102.15C63.4546 114.503 73.1797 120.681 89.4145 129.871C90.3401 130.403 92.8297 131.841 95.4934 130.601C97.2392 129.798 99.1156 127.815 99.4303 125.759L99.4432 125.749Z" fill="#C65C14"/>
<path d="M74.5187 138.711C74.5268 138.36 74.4821 136.932 72.5515 135.196C70.0665 132.963 67.1873 132.686 66.963 132.658C57.8026 131.728 19.1859 107.123 15.7257 112.444C15.5436 112.729 15.5237 112.989 14.7331 114.647C13.2281 117.801 12.478 118.553 12.268 119.45C11.4628 122.745 18.231 125.596 18.231 125.596C38.5456 134.16 48.7042 138.432 65.5181 144.504C66.4781 144.847 69.0593 145.807 71.4344 144.123C72.9885 143.024 74.5103 140.77 74.5214 138.689L74.5187 138.711Z" fill="#C65C14"/>
<path fill-rule="evenodd" clip-rule="evenodd" d="M270.498 216.914C270.498 216.924 270.499 216.934 270.5 216.943L270.448 216.903L270.498 216.914ZM270.19 213.093C270.014 210.891 269.836 208.689 269.66 206.486C269.659 206.48 269.659 206.474 269.658 206.467C269.836 208.676 270.013 210.885 270.19 213.093Z" fill="#C65C14"/>
<path fill-rule="evenodd" clip-rule="evenodd" d="M220.275 209.4C220.28 209.372 220.284 209.343 220.288 209.316L220.258 209.38C220.264 209.387 220.269 209.393 220.275 209.4ZM219.461 214.638L219.46 214.641C219.265 215.904 219.076 217.123 218.886 218.344C219.077 217.122 219.266 215.903 219.461 214.638Z" fill="#C65C14"/>
</svg>
