<svg width="85" height="396" viewBox="0 0 85 396" fill="none" xmlns="http://www.w3.org/2000/svg">
<path d="M46.6148 150.945C45.2475 152.065 43.6535 154.329 41.6321 154.834C34.032 156.725 30.0884 161.308 29.7062 169.117C25.4041 169.008 21.1917 169.173 17.0582 168.668C15.3723 168.461 13.1282 167.205 12.387 165.769C4.06841 149.638 -9.60167 141.435 -26.9749 138.492C-52.4409 134.188 -77.8756 136.494 -103.117 140.028C-113.6 141.504 -122.925 139.642 -132.674 136.614C-139.019 134.656 -145.918 134.233 -152.619 133.763C-154.616 133.616 -156.766 135.604 -158.85 136.629L-158.542 138.823C-151.456 139.474 -144.379 140.138 -137.293 140.789C-137.347 141.375 -137.38 141.96 -137.434 142.547C-140.391 142.276 -143.907 142.175 -147.844 142.454C-151.644 142.741 -154.999 143.315 -157.819 143.983C-157.949 145.467 -158.078 146.951 -158.204 148.458C-150.651 148.256 -143.099 148.053 -135.546 147.852C-135.357 148.386 -135.18 148.911 -134.99 149.447C-142.52 150.784 -150.063 152.112 -157.593 153.449C-157.363 154.138 -157.154 154.831 -156.924 155.52C-148.218 155.168 -139.521 154.828 -130.827 154.467L-130.519 155.705C-133.04 156.121 -136.099 156.706 -139.399 157.546C-140.724 157.887 -142.431 158.354 -143.443 159.876C-143.866 160.518 -144.05 161.166 -144.133 161.609C-143.789 161.92 -143.249 162.345 -142.492 162.675C-140.967 163.345 -139.494 163.202 -138.667 163.081C-126.344 161.201 -119.746 157.972 -119.746 157.972C-95.0571 150.02 -69.7316 147.284 -43.9983 149.359C-39.6216 149.71 -35.5549 153.922 -31.3394 156.34C-35.0494 159.177 -38.4921 162.527 -42.5549 164.7C-45.5371 166.299 -49.3296 166.834 -52.7838 166.965C-57.9364 167.163 -59.6998 170.004 -60.2664 174.477C-61.5151 184.166 -62.7186 193.849 -64.1299 203.511C-65.2075 210.834 -63.2524 212.432 -56.2097 210.162C-49.7588 208.079 -43.2506 205.714 -36.5997 204.824C-31.3943 204.119 -25.4047 204.64 -24.1003 212.473C-31.8548 218.857 -41.7996 218.561 -51.0143 220.363C-54.3593 221.027 -58.109 221.067 -59.867 223.385C-60.8781 224.724 -60.7987 226.331 -60.7682 228.387C-60.7376 230.444 -60.3871 233.93 -58.3572 238.045C-56.0081 237.615 -52.5959 236.944 -48.5002 235.996C-26.3097 230.836 -13.1719 226.833 -1.76849 217.484C5.16124 211.814 11.2457 205.539 14.1096 196.795C18.7564 182.623 27.0579 179.941 39.7625 188.727C51.699 196.99 64.0293 196.783 76.3348 190.114C87.1876 184.234 87.8022 168.6 78.4245 159.381C73.1492 154.199 66.9665 153.872 60.3585 153.414C55.7351 153.093 51.1655 151.798 46.6273 150.955L46.6148 150.945Z" fill="white"/>
<path d="M-34.3972 247.427C-34.3987 247.791 -34.3452 249.276 -32.2145 251.296C-29.4568 253.89 -26.2501 254.54 -26.0057 254.59C-15.838 256.647 27.1337 286.699 30.9382 281.621C31.1454 281.357 31.1579 281.083 32.0316 279.452C33.6759 276.375 34.5255 275.681 34.7595 274.788C35.6357 271.472 28.1202 267.721 28.1202 267.721C5.53621 256.434 -5.75571 250.792 -24.4409 242.508C-25.5109 242.033 -28.3739 240.738 -30.998 242.192C-32.7163 243.138 -34.4033 245.287 -34.4071 247.439L-34.3972 247.427Z" fill="white"/>
<path d="M-5.00003 232.967C-4.96948 233.317 -4.79691 234.753 -2.64482 236.383C0.120499 238.476 3.13786 238.591 3.37766 238.596C12.9367 238.996 55.1941 261.394 58.271 255.846C58.4405 255.552 58.4306 255.28 59.089 253.562C60.3474 250.303 61.0588 249.501 61.1879 248.586C61.6944 245.224 54.4474 242.76 54.4474 242.76C32.6264 235.367 21.7159 231.669 3.7679 226.587C2.74225 226.289 -0.0169525 225.483 -2.31108 227.317C-3.81708 228.511 -5.1711 230.882 -4.9901 232.955L-5.00003 232.967Z" fill="white"/>
<path d="M19.0738 214.456C19.1492 214.799 19.5306 216.176 21.8169 217.404C24.7598 218.985 27.6228 218.573 27.8471 218.546C36.9671 217.279 80.3094 232.035 82.4118 226.046C82.5212 225.726 82.479 225.469 82.8548 223.671C83.5703 220.25 84.1212 219.341 84.113 218.42C84.1153 215.028 76.8648 213.862 76.8648 213.862C55.1008 210.353 44.22 208.611 26.447 206.694C25.4332 206.589 22.6985 206.269 20.7894 208.467C19.5398 209.903 18.5944 212.453 19.0764 214.478L19.0738 214.456Z" fill="white"/>
<path d="M-51.4359 283.381C-51.0823 283.293 -49.6275 282.993 -47.1615 284.586C-43.9891 286.652 -42.5984 289.615 -42.4915 289.841C-38.0873 299.238 1.27328 333.89 -2.75746 338.791C-2.96443 339.054 -3.22867 339.132 -4.60484 340.367C-7.20367 342.694 -7.67639 343.685 -8.4882 344.123C-11.5002 345.76 -16.9232 339.343 -16.9232 339.343C-33.2318 320.064 -41.3857 310.424 -53.8545 294.223C-54.5685 293.295 -56.5037 290.819 -55.7141 287.924C-55.2016 286.03 -53.5146 283.881 -51.4259 283.368L-51.4359 283.381Z" fill="white"/>
<path d="M-61.5563 308.717C-61.2103 308.663 -59.7746 308.49 -57.6813 310.197C-54.9947 312.389 -54.1684 315.295 -54.1065 315.527C-51.455 324.724 -19.6969 360.495 -24.3562 364.799C-24.6013 365.034 -24.8678 365.089 -26.3807 366.136C-29.2468 368.131 -29.8578 369.012 -30.7154 369.354C-33.8595 370.642 -37.9689 364.182 -37.9689 364.182C-50.317 344.722 -56.4907 334.993 -65.6764 318.749C-66.2087 317.823 -67.6452 315.333 -66.4065 312.668C-65.6038 310.922 -63.6221 309.044 -61.5662 308.729L-61.5563 308.717Z" fill="white"/>
<path d="M-74.5131 333.652C-74.161 333.644 -72.7337 333.689 -71.0001 335.621C-68.7678 338.107 -68.4898 340.987 -68.4631 341.212C-67.5337 350.377 -42.9406 389.013 -48.2582 392.474C-48.5438 392.656 -48.8034 392.676 -50.4599 393.467C-53.6131 394.973 -54.3646 395.723 -55.2612 395.933C-58.5542 396.739 -61.4035 389.968 -61.4035 389.968C-69.9645 369.643 -74.2336 359.479 -80.3034 342.658C-80.6463 341.697 -81.6047 339.115 -79.9223 336.738C-78.8233 335.184 -76.5712 333.661 -74.4909 333.65L-74.5131 333.652Z" fill="white"/>
<path d="M-66.2973 113.157C-69.3246 107.181 -60.2932 98.1616 -48.0749 83.3762C-25.9737 56.6241 -19.0309 41.9602 -11.9057 44.1658C-9.01132 45.0586 -7.67334 48.2442 -7.3587 49.0601C-4.0397 57.8466 -16.7964 65.9701 -34.9921 89.2481C-48.3574 106.323 -54.1111 118.101 -61.3631 116.73C-63.3074 116.36 -65.3427 115.046 -66.2973 113.157Z" fill="white"/>
<path d="M-73.8364 88.4527C-73.4722 88.455 -71.9883 88.4015 -69.9691 86.2697C-67.3764 83.5107 -66.7265 80.3024 -66.6761 80.0572C-64.621 69.8852 -34.5827 26.8924 -39.6582 23.0861C-39.9225 22.8787 -40.1966 22.8663 -41.8263 21.9921C-44.9025 20.3471 -45.5959 19.497 -46.4887 19.2629C-49.8023 18.3863 -53.5528 25.9053 -53.5528 25.9053C-64.8333 48.5004 -70.4739 59.798 -78.7531 78.4924C-79.2273 79.562 -80.5218 82.4273 -79.0685 85.0526C-78.123 86.771 -75.9748 88.4595 -73.8242 88.4626L-73.8364 88.4527Z" fill="white"/>
<path d="M-89.654 66.246C-89.305 66.2154 -87.87 66.0427 -86.2395 63.8888C-84.1486 61.1222 -84.0332 58.1034 -84.0279 57.8634C-83.6285 48.3001 -61.2409 6.02197 -66.7868 2.94372C-67.0801 2.7741 -67.3519 2.78403 -69.0695 2.12533C-72.3266 0.866307 -73.1285 0.154509 -74.0426 0.0253821C-77.4029 -0.48142 -79.8658 6.76922 -79.8658 6.76922C-87.2568 28.6008 -90.9515 39.5165 -96.0316 57.4738C-96.3294 58.4999 -97.1359 61.2597 -95.3015 63.5549C-94.1078 65.0624 -91.7381 66.4164 -89.667 66.236L-89.654 66.246Z" fill="white"/>
<path d="M-39.2657 115.623C-39.3535 115.269 -39.6537 113.814 -38.0614 111.346C-35.9963 108.173 -33.0347 106.781 -32.8087 106.674C-23.4176 102.268 11.2187 62.8887 16.117 66.9206C16.3808 67.1285 16.4579 67.3921 17.6926 68.7689C20.0185 71.369 21.0082 71.842 21.447 72.6549C23.083 75.6676 16.6694 81.094 16.6694 81.094C-2.60092 97.4098 -12.2356 105.568 -28.4289 118.043C-29.356 118.757 -31.8312 120.694 -34.7248 119.903C-36.618 119.391 -38.7662 117.702 -39.2787 115.613L-39.2657 115.623Z" fill="white"/>
<path d="M-13.9432 125.749C-13.9959 125.403 -14.1685 123.966 -12.4632 121.872C-10.2714 119.184 -7.36711 118.357 -7.13571 118.295C2.05684 115.643 37.8104 83.8691 42.113 88.5306C42.3472 88.7759 42.402 89.0425 43.4483 90.5554C45.4423 93.4237 46.3233 94.0341 46.6653 94.8929C47.9531 98.0386 41.4955 102.15 41.4955 102.15C22.0454 114.503 12.3203 120.681 -3.91446 129.871C-4.84006 130.403 -7.3297 131.841 -9.99344 130.601C-11.7392 129.798 -13.6156 127.815 -13.9303 125.759L-13.9432 125.749Z" fill="white"/>
<path d="M10.9813 138.711C10.9732 138.36 11.0179 136.932 12.9485 135.196C15.4335 132.963 18.3127 132.686 18.537 132.658C27.6974 131.728 66.3141 107.123 69.7743 112.444C69.9564 112.729 69.9763 112.989 70.7669 114.647C72.2719 117.801 73.022 118.553 73.232 119.45C74.0372 122.745 67.269 125.596 67.269 125.596C46.9544 134.16 36.7958 138.432 19.9819 144.504C19.0219 144.847 16.4407 145.807 14.0656 144.123C12.5115 143.024 10.9897 140.77 10.9786 138.689L10.9813 138.711Z" fill="white"/>
<path fill-rule="evenodd" clip-rule="evenodd" d="M-184.998 216.914C-184.998 216.924 -184.999 216.934 -185 216.943L-184.948 216.903L-184.998 216.914ZM-184.69 213.093C-184.514 210.891 -184.336 208.689 -184.16 206.486C-184.159 206.48 -184.159 206.474 -184.158 206.467C-184.336 208.676 -184.513 210.885 -184.69 213.093Z" fill="white"/>
<path fill-rule="evenodd" clip-rule="evenodd" d="M-134.775 209.4C-134.78 209.372 -134.784 209.343 -134.788 209.316L-134.758 209.38C-134.764 209.387 -134.769 209.393 -134.775 209.4ZM-133.961 214.638L-133.96 214.641C-133.765 215.904 -133.576 217.123 -133.386 218.344C-133.577 217.122 -133.766 215.903 -133.961 214.638Z" fill="white"/>
</svg>
